<?xml version="1.0" encoding="UTF-8"?>
<svg width="66px" height="80px" viewBox="0 0 66 80" version="1.1" xmlns="http://www.w3.org/2000/svg" xmlns:xlink="http://www.w3.org/1999/xlink">
    <!-- Generator: Sketch 47.1 (45422) - http://www.bohemiancoding.com/sketch -->
    <title>locked-door</title>
    <desc>Created with Sketch.</desc>
    <defs></defs>
    <g id="Home-Responsive--v1" stroke="none" stroke-width="1" fill="none" fill-rule="evenodd">
        <g id="960-Home" transform="translate(-1080.000000, -3005.000000)">
            <g id="3" transform="translate(174.000000, 2523.000000)">
                <g id="6" transform="translate(786.000000, 482.000000)">
                    <g id="locked-door" transform="translate(121.000000, 0.000000)">
                        <circle id="Oval-Copy-35" stroke="#FFFFFF" fill="#161616" transform="translate(29.617215, 44.855311) scale(-1, 1) rotate(-210.000000) translate(-29.617215, -44.855311) " cx="29.6172154" cy="44.8553107" r="2.85714286"></circle>
                        <circle id="Oval-Copy-37" stroke="#FFFFFF" fill="#161616" transform="translate(54.141025, 40.093406) scale(-1, 1) rotate(-210.000000) translate(-54.141025, -40.093406) " cx="54.141025" cy="40.0934059" r="2.85714286"></circle>
                        <path d="M1.786789,3.67548396 C33.8660388,3.67548396 50.4131914,3.67548396 51.4282467,3.67548396 C52.9508298,3.67548396 54.3946628,4.28432226 54.3946628,6.64189999 C54.3946628,8.21361847 54.3946628,11.7556771 54.3946628,17.2680758" id="Path-549" stroke="#C5C5C5" stroke-linecap="round" stroke-linejoin="round"></path>
                        <path d="M53.957778,48.7199293 C58.0384078,48.7199293 60.5115639,48.7199293 61.3772464,48.7199293 C62.6757701,48.7199293 63.8552593,47.7333263 63.8552593,46.2419164 C63.8552593,44.7505065 63.8552593,37.6247849 63.8552593,36.3345119 C63.8552593,35.0442389 62.9918772,33.7947142 61.2888454,33.7947142 C59.5858136,33.7947142 48.8099962,33.7947142 47.2609738,33.7947142 C45.7119514,33.7947142 44.7349621,34.8128922 44.7349621,36.3806354 C44.7349621,37.9483786 44.7349621,44.9666454 44.7349621,46.2744883 C44.7349621,47.5823312 45.5016507,48.7917115 47.2343018,48.7917115 C48.3894025,48.7917115 50.6305612,48.7677841 53.957778,48.7199293 Z" id="Path-551" stroke="#C5C5C5" stroke-linecap="round" stroke-linejoin="round"></path>
                        <path d="M54.2857143,33.8405497 C54.2857143,32.4337289 54.2857143,31.0023015 54.2857143,29.5462676 C54.2857143,27.3622168 56.2984665,24.7303031 59.9793555,24.7303031" id="Path-552" stroke="#C5C5C5" stroke-linecap="round" stroke-linejoin="round" transform="translate(57.132535, 29.285426) scale(-1, 1) translate(-57.132535, -29.285426) "></path>
                        <path d="M0.0115100853,63.1622435 C0.0115100853,64.9981198 0.8937717,65.2344063 1.82408454,65.7289527 C2.75439739,66.223499 33.6748536,78.7282176 35.2507432,79.1771574 C36.8266328,79.6260972 37.4228856,78.6258974 37.4228856,76.936619 C37.4228856,75.2473405 37.4228856,21.7424374 37.4228856,20.4607171 C37.4228856,19.1789968 36.8854697,18.0984197 35.5291134,17.4549349 C34.172757,16.8114501 3.92001178,4.27566015 2.40423072,3.7503881 C0.888449662,3.22511605 0.0199177911,4.57860961 0.0199177911,5.73476087 C0.0199177911,6.89091213 0.0115100853,61.3263672 0.0115100853,63.1622435 Z" id="Path-548" stroke="#C5C5C5" stroke-linecap="round" stroke-linejoin="round"></path>
                        <path d="M54.2462615,56.6268799 C54.2462615,60.3569894 54.2462615,62.7384032 54.2462615,63.7711212 C54.2462615,65.3201982 53.3086906,65.9681507 52.049232,65.9681507 C51.2095928,65.9681507 46.4635337,65.9681507 37.8110547,65.9681507" id="Path-550" stroke="#C5C5C5" stroke-linecap="round" stroke-linejoin="round"></path>
                        <path d="M48.657742,33.8061048 C48.657742,32.4203518 48.657742,30.9994583 48.657742,29.5434244 C48.657742,27.3593735 50.6704943,24.7274599 54.3513832,24.7274599" id="Path-552" stroke="#C5C5C5" stroke-linecap="round" stroke-linejoin="round"></path>
                        <circle id="Oval-Copy-37" stroke="#FFFFFF" fill="#161616" transform="translate(28.426739, 3.902930) scale(-1, 1) rotate(-210.000000) translate(-28.426739, -3.902930) " cx="28.4267392" cy="3.90292973" r="2.85714286"></circle>
                        <circle id="Oval-Copy-37" stroke="#FFFFFF" fill="#161616" transform="translate(16.998168, 71.521977) scale(-1, 1) rotate(-210.000000) translate(-16.998168, -71.521977) " cx="16.9981678" cy="71.5219773" r="2.85714286"></circle>
                    </g>
                </g>
            </g>
        </g>
    </g>
</svg>