<?xml version="1.0" encoding="UTF-8"?>
<svg width="82px" height="82px" viewBox="0 0 82 82" version="1.1" xmlns="http://www.w3.org/2000/svg" xmlns:xlink="http://www.w3.org/1999/xlink">
    <!-- Generator: Sketch 47.1 (45422) - http://www.bohemiancoding.com/sketch -->
    <title>methodology-process</title>
    <desc>Created with Sketch.</desc>
    <defs></defs>
    <g id="Home-Responsive--v1" stroke="none" stroke-width="1" fill="none" fill-rule="evenodd">
        <g id="960-Home" transform="translate(-286.000000, -2674.000000)">
            <g id="3" transform="translate(174.000000, 2523.000000)">
                <g id="1" transform="translate(0.000000, 152.000000)">
                    <g id="methodology-process" transform="translate(113.000000, 0.000000)">
                        <path d="M39.8014888,28.7912088 L1.51719248,40.6593407" id="Line" stroke="#C5C5C5" stroke-linecap="round" stroke-linejoin="round"></path>
                        <path d="M39.004568,3.19323419 L1.52380952,40.6739927" id="Line" stroke="#C5C5C5" stroke-linecap="round" stroke-linejoin="round"></path>
                        <path d="M39.8014888,40.2197802 L1.51719248,52.0879121" id="Line-Copy-2" stroke="#C5C5C5" stroke-linecap="round" stroke-linejoin="round" transform="translate(20.659341, 46.153846) scale(1, -1) translate(-20.659341, -46.153846) "></path>
                        <path d="M38.9311381,77.6858867 L1.52256785,40.2051282 L38.9311381,77.6858867 Z" id="Line-Copy-6" stroke="#C5C5C5" stroke-linecap="round" stroke-linejoin="round"></path>
                        <path d="M78.4828075,28.7912088 L40.1985112,40.6593407" id="Line-Copy-7" stroke="#C5C5C5" stroke-linecap="round" stroke-linejoin="round" transform="translate(59.340659, 34.725275) scale(-1, 1) translate(-59.340659, -34.725275) "></path>
                        <path d="M39.6876324,3.19323419 L78.4761905,40.6739927 L39.6876324,3.19323419 Z" id="Line-Copy-8" stroke="#C5C5C5" stroke-linecap="round" stroke-linejoin="round"></path>
                        <path d="M78.4828075,40.2197802 L40.1985112,52.0879121" id="Line-Copy-9" stroke="#C5C5C5" stroke-linecap="round" stroke-linejoin="round" transform="translate(59.340659, 46.153846) scale(-1, -1) translate(-59.340659, -46.153846) "></path>
                        <path d="M39.6876324,77.6858867 L78.4761905,40.2051282 L39.6876324,77.6858867 Z" id="Line-Copy-10" stroke="#C5C5C5" stroke-linecap="round" stroke-linejoin="round"></path>
                        <circle id="Oval-Copy-490" stroke="#FFFFFF" fill="#161616" transform="translate(39.560440, 2.637363) rotate(-360.000000) translate(-39.560440, -2.637363) " cx="39.5604396" cy="2.63736264" r="2.63736264"></circle>
                        <circle id="Oval-Copy-491" stroke="#FFFFFF" fill="#161616" transform="translate(39.560440, 29.010989) rotate(-360.000000) translate(-39.560440, -29.010989) " cx="39.5604396" cy="29.010989" r="2.63736264"></circle>
                        <circle id="Oval-Copy-492" stroke="#FFFFFF" fill="#161616" transform="translate(39.560440, 51.868132) rotate(-360.000000) translate(-39.560440, -51.868132) " cx="39.5604396" cy="51.8681319" r="2.63736264"></circle>
                        <circle id="Oval-Copy-493" stroke="#FFFFFF" fill="#161616" transform="translate(39.560440, 77.362637) rotate(-360.000000) translate(-39.560440, -77.362637) " cx="39.5604396" cy="77.3626374" r="2.63736264"></circle>
                        <circle id="Oval-Copy-495" stroke="#FFFFFF" fill="#161616" transform="translate(77.362637, 40.439560) rotate(-360.000000) translate(-77.362637, -40.439560) " cx="77.3626374" cy="40.4395604" r="2.63736264"></circle>
                        <circle id="Oval-Copy-496" stroke="#FFFFFF" fill="#161616" transform="translate(2.637363, 40.439560) rotate(-360.000000) translate(-2.637363, -40.439560) " cx="2.63736264" cy="40.4395604" r="2.63736264"></circle>
                    </g>
                </g>
            </g>
        </g>
    </g>
</svg>