<?xml version="1.0" encoding="UTF-8"?>
<svg width="72px" height="82px" viewBox="0 0 72 82" version="1.1" xmlns="http://www.w3.org/2000/svg" xmlns:xlink="http://www.w3.org/1999/xlink">
    <!-- Generator: Sketch 47.1 (45422) - http://www.bohemiancoding.com/sketch -->
    <title>proposal-contract-offer</title>
    <desc>Created with Sketch.</desc>
    <defs></defs>
    <g id="Home-Responsive--v1" stroke="none" stroke-width="1" fill="none" fill-rule="evenodd">
        <g id="960-Home" transform="translate(-1075.000000, -2674.000000)">
            <g id="3" transform="translate(174.000000, 2523.000000)">
                <g transform="translate(786.000000, 152.000000)" id="proposal-contract-offer">
                    <g transform="translate(116.000000, 0.000000)">
                        <path d="M55.2380952,50.212516 C54.4885891,40.6647339 54.113836,31.9086587 54.113836,23.9442906 C54.113836,15.9799225 54.113836,7.99849232 54.113836,-1.13686838e-13 L0,-1.13686838e-13 L0,63.8095238 L48.5813916,63.8095238" id="Path-61" stroke="#C5C5C5" stroke-linecap="round" stroke-linejoin="round"></path>
                        <path d="M51.3086199,67.3334653 C45.0249707,59.4600011 42.4061114,55.9933033 44.6640845,49.2819818 C46.9220577,42.5706603 47.8231591,38.9052591 48.9670504,34.8346615 C50.1109418,30.7640638 54.208114,31.2523012 54.3608051,35.7855667" id="Path-62" stroke="#C5C5C5" stroke-linecap="round" stroke-linejoin="round"></path>
                        <path d="M54.2857143,22.8571429 C56.8482344,23.3037732 59.2276911,24.4659355 61.223674,30.0967098 C63.2196568,35.727484 66.5524463,40.0249069 67.3825064,44.0230375 C68.2125666,48.021168 66.6004266,66.5061263 66.4856428,67.6190476" id="Path-63" stroke="#C5C5C5" stroke-linecap="round" stroke-linejoin="round"></path>
                        <polyline id="Path-64" stroke="#C5C5C5" stroke-linecap="round" stroke-linejoin="round" points="50.4761905 71.4241269 50.4761905 67.6190476 69.5238095 67.6190476 69.5238095 71.4285714"></polyline>
                        <polygon id="Path-65" stroke="#C5C5C5" stroke-linecap="round" stroke-linejoin="round" points="48.5714286 71.4285714 48.5714286 80 70.4761905 80 70.4761905 71.4484717"></polygon>
                        <path d="M27.1428571,11.4285714 L27.1428571,15.2380952" id="Path-57" stroke="#C5C5C5" stroke-linecap="round" stroke-linejoin="round"></path>
                        <path d="M27.1428571,47.6190476 L27.1428571,51.4285714" id="Path-57-Copy" stroke="#C5C5C5" stroke-linecap="round" stroke-linejoin="round"></path>
                        <path d="M37.5295105,23.9931342 C37.2476694,18.8756932 34.2099921,14.9277585 26.2029576,15.2573202 C18.1959232,15.5868818 16.2148956,22.1018004 18.1959232,25.9787675 C20.1769507,29.8557346 24.3234999,30.484721 27.5060022,31.1205125 C30.6885046,31.756304 37.5468076,32.8247059 38.0448625,38.3883676 C38.5429175,43.9520293 35.2788516,46.5272765 31.3071305,47.2875042 C27.3354094,48.047732 17.0543141,48.3398655 16.1904762,38.3883676" id="Path-56" stroke="#C5C5C5" stroke-linecap="round" stroke-linejoin="round"></path>
                        <circle id="Oval-Copy-497" stroke="#FFFFFF" fill="#161616" transform="translate(37.142857, 22.857143) rotate(-360.000000) translate(-37.142857, -22.857143) " cx="37.1428571" cy="22.8571429" r="2.85714286"></circle>
                        <circle id="Oval-Copy-498" stroke="#FFFFFF" fill="#161616" transform="translate(54.285714, 23.809524) rotate(-360.000000) translate(-54.285714, -23.809524) " cx="54.2857143" cy="23.8095238" r="2.85714286"></circle>
                        <circle id="Oval-Copy-499" stroke="#FFFFFF" fill="#161616" transform="translate(47.619048, 63.809524) rotate(-360.000000) translate(-47.619048, -63.809524) " cx="47.6190476" cy="63.8095238" r="2.85714286"></circle>
                        <circle id="Oval-Copy-500" stroke="#FFFFFF" fill="#161616" transform="translate(55.238095, 48.571429) rotate(-360.000000) translate(-55.238095, -48.571429) " cx="55.2380952" cy="48.5714286" r="2.85714286"></circle>
                        <circle id="Oval-Copy-502" stroke="#FFFFFF" fill="#161616" transform="translate(16.190476, 39.047619) rotate(-360.000000) translate(-16.190476, -39.047619) " cx="16.1904762" cy="39.047619" r="2.85714286"></circle>
                    </g>
                </g>
            </g>
        </g>
    </g>
</svg>