<?xml version="1.0" encoding="UTF-8"?>
<svg width="81px" height="81px" viewBox="0 0 81 81" version="1.1" xmlns="http://www.w3.org/2000/svg" xmlns:xlink="http://www.w3.org/1999/xlink">
    <!-- Generator: Sketch 47.1 (45422) - http://www.bohemiancoding.com/sketch -->
    <title>time-clock</title>
    <desc>Created with Sketch.</desc>
    <defs></defs>
    <g id="Home-Responsive--v1" stroke="none" stroke-width="1" fill="none" fill-rule="evenodd">
        <g id="960-Home" transform="translate(-679.000000, -3004.000000)">
            <g id="3" transform="translate(174.000000, 2523.000000)">
                <g id="5" transform="translate(395.000000, 482.000000)">
                    <g id="time-clock" transform="translate(111.000000, 0.000000)">
                        <path d="M79.1795311,39.5939379 C79.1795311,61.4589542 61.4520698,79.1795311 39.5939379,79.1795311 C17.7254793,79.1795311 0.00834461039,61.4589542 0.00834461039,39.5939379 C0.00834461039,17.7289215 17.7254793,0.00834461039 39.5939379,0.00834461039 C61.4520698,0.00834461039 79.1795311,17.7289215 79.1795311,39.5939379 Z" id="Stroke-1" stroke="#C5C5C5" stroke-linecap="round" stroke-linejoin="round"></path>
                        <polyline id="Stroke-3" stroke="#C5C5C5" stroke-linecap="round" stroke-linejoin="round" points="39.5194945 20.5924103 39.5194945 39.5246505 60.1728475 58.4568908"></polyline>
                        <circle id="Oval-Copy-166" stroke="#FFFFFF" fill="#161616" transform="translate(39.540230, 39.540230) rotate(-90.000000) translate(-39.540230, -39.540230) " cx="39.5402299" cy="39.5402299" r="2.75862069"></circle>
                        <circle id="Oval-Copy-167" stroke="#FFFFFF" fill="#161616" transform="translate(39.540230, 20.229885) rotate(-90.000000) translate(-39.540230, -20.229885) " cx="39.5402299" cy="20.2298851" r="2.75862069"></circle>
                        <circle id="Oval-Copy-168" stroke="#FFFFFF" fill="#161616" cx="60.6896552" cy="58.8505747" r="2.75862069"></circle>
                        <circle id="Oval-Copy-169" stroke="#FFFFFF" fill="#161616" transform="translate(67.126437, 11.034483) rotate(-90.000000) translate(-67.126437, -11.034483) " cx="67.1264368" cy="11.0344828" r="2.75862069"></circle>
                        <circle id="Oval-Copy-170" stroke="#FFFFFF" fill="#161616" transform="translate(11.954023, 68.045977) rotate(-90.000000) translate(-11.954023, -68.045977) " cx="11.954023" cy="68.045977" r="2.75862069"></circle>
                    </g>
                </g>
            </g>
        </g>
    </g>
</svg>