<?xml version="1.0" encoding="UTF-8"?>
<svg width="22px" height="20px" viewBox="0 0 22 20" version="1.1" xmlns="http://www.w3.org/2000/svg" xmlns:xlink="http://www.w3.org/1999/xlink">
    <!-- Generator: Sketch 47.1 (45422) - http://www.bohemiancoding.com/sketch -->
    <title>love</title>
    <desc>Created with Sketch.</desc>
    <defs>
        <polygon id="path-1" points="21.3423827 0 6.15384615e-05 1.3117712e-14 6.15384615e-05 19.7537846 21.3423827 19.7537846 21.3423827 8.74514136e-15"></polygon>
    </defs>
    <g id="Home-Responsive--v1" stroke="none" stroke-width="1" fill="none" fill-rule="evenodd">
        <g id="960-Home" transform="translate(-427.000000, -7681.000000)">
            <g id="Footer" transform="translate(139.000000, 7653.000000)">
                <g id="love" transform="translate(288.000000, 28.000000)">
                    <mask id="mask-2" fill="white">
                        <use xlink:href="#path-1"></use>
                    </mask>
                    <g id="Clip-2"></g>
                    <path d="M10.7231385,9.26147692 L7.61544615,6.12301538 L10.7231385,3.01532308 L13.8616,6.15378462 L10.7231385,9.26147692 Z M6.47698462,5.75378462 C6.2616,5.96916923 6.2616,6.30763077 6.47698462,6.49224615 L10.3231385,10.3691692 C10.5385231,10.5845538 10.8769846,10.5845538 11.0616,10.3691692 L14.9385231,6.52301538 C15.0308308,6.43070769 15.0923692,6.27686154 15.0923692,6.15378462 C15.0923692,5.99993846 15.0308308,5.87686154 14.9385231,5.78455385 L11.4308308,2.27686154 C12.3843692,1.47686154 13.6151385,1.04609231 14.8769846,1.04609231 C16.3231385,1.04609231 17.6769846,1.59993846 18.7231385,2.64609231 C19.7385231,3.66147692 20.3231385,5.01532308 20.3231385,6.49224615 C20.3231385,7.9384 19.7689846,9.29224615 18.7231385,10.3384 L10.6923692,18.4614769 L2.6616,10.3384 C0.538523077,8.21532308 0.538523077,4.79993846 2.6616,2.67686154 C3.67698462,1.66147692 5.03083077,1.07686154 6.50775385,1.07686154 C7.76929231,1.07686154 8.96929231,1.50763077 9.95390769,2.30763077 L6.47698462,5.75378462 Z M19.4923692,1.90763077 C18.2616,0.676861538 16.6308308,-6.15384615e-05 14.9077538,-6.15384615e-05 C13.3692923,-6.15384615e-05 11.8616,0.553784615 10.6923692,1.5384 C9.52313846,0.523015385 8.04621538,-6.15384615e-05 6.47698462,-6.15384615e-05 C4.75390769,-6.15384615e-05 3.12313846,0.676861538 1.89236923,1.90763077 C-0.630707692,4.43070769 -0.630707692,8.55378462 1.89236923,11.0768615 L10.2923692,19.5999385 C10.3846769,19.6922462 10.5385231,19.7537846 10.6616,19.7537846 C10.8154462,19.7537846 10.9385231,19.6922462 11.0308308,19.5999385 L19.4308308,11.0768615 C20.6616,9.84609231 21.3385231,8.21532308 21.3385231,6.49224615 C21.4000615,4.76916923 20.7231385,3.1384 19.4923692,1.90763077 L19.4923692,1.90763077 Z" id="Fill-1" fill="#161616" mask="url(#mask-2)"></path>
                </g>
            </g>
        </g>
    </g>
</svg>