<?xml version="1.0" encoding="UTF-8"?>
<svg width="118px" height="64px" viewBox="0 0 118 64" version="1.1" xmlns="http://www.w3.org/2000/svg" xmlns:xlink="http://www.w3.org/1999/xlink">
    <!-- Generator: Sketch 47.1 (45422) - http://www.bohemiancoding.com/sketch -->
    <title>Logo</title>
    <desc>Created with Sketch.</desc>
    <defs>
        <polygon id="path-1" points="0 63.5362319 117.60742 63.5362319 117.60742 0.217507246 0 0.217507246"></polygon>
    </defs>
    <g id="Home-Responsive--v1" stroke="none" stroke-width="1" fill="none" fill-rule="evenodd">
        <g id="960-Home" transform="translate(-139.000000, -7658.000000)">
            <g id="Footer" transform="translate(139.000000, 7653.000000)">
                <g id="Logo" transform="translate(0.000000, 5.000000)">
                    <polygon id="Fill-1" fill="#161616" points="12.7826087 42.3532058 12.7826087 50.1190029 5.23107246 50.1190029 5.23107246 42.3532058 0.000231884058 42.3532058 0.000231884058 62.474713 5.23107246 62.474713 5.23107246 54.1755826 12.7826087 54.1755826 12.7826087 62.474713 18.013913 62.474713 18.013913 42.3532058"></polygon>
                    <path d="M34.5594899,58.9786899 L27.087258,58.9786899 L25.8860986,62.4745739 L20.3083594,62.4745739 L27.9674899,42.3530667 L33.6787942,42.3530667 L41.3369971,62.4745739 L35.7601855,62.4745739 L34.5594899,58.9786899 Z M33.1714319,55.0028058 L30.8229101,48.3036754 L28.4748522,55.0028058 L33.1714319,55.0028058 Z" id="Fill-2" fill="#161616"></path>
                    <g id="Group-15" transform="translate(0.000000, 0.246261)">
                        <path d="M43.6324174,42.1069449 L51.425113,42.1069449 C53.2750841,42.1069449 54.6807652,42.5516986 55.641229,43.4412058 C56.6021565,44.330713 57.0826203,45.6121043 57.0826203,47.2835246 C57.0826203,48.2982493 56.8994319,49.1385971 56.5353739,49.8059594 C56.1703884,50.472858 55.615258,51.0381913 54.8676638,51.5005681 C55.615258,51.6429449 56.2506203,51.8604522 56.7756058,52.1544812 C57.3001275,52.4475826 57.7277217,52.8083942 58.0569971,53.2350609 C58.3858087,53.6621913 58.6209391,54.1426551 58.7637797,54.6764522 C58.9061565,55.2102493 58.977113,55.7792928 58.977113,56.3840464 C58.977113,57.326887 58.8124754,58.1635246 58.4832,58.8925681 C58.1539246,59.6225391 57.6915478,60.2361043 57.0956058,60.7341913 C56.4996638,61.2318145 55.775258,61.6060754 54.9209971,61.8551188 C54.0672,62.1041623 53.1062725,62.2284522 52.0386783,62.2284522 L43.6324174,62.2284522 L43.6324174,42.1069449 Z M48.863258,50.0058435 L49.8237217,50.0058435 C51.4603594,50.0058435 52.2793739,49.3565681 52.2793739,48.0575536 C52.2793739,46.7590029 51.4603594,46.1097275 49.8237217,46.1097275 L48.863258,46.1097275 L48.863258,50.0058435 Z M48.863258,58.1723362 L50.0101565,58.1723362 C51.3267942,58.1723362 52.2696348,58.0030609 52.8396058,57.6649739 C53.4086493,57.326887 53.6929391,56.7842783 53.6929391,56.0371478 C53.6929391,55.2900174 53.4086493,54.7478725 52.8396058,54.408858 C52.2696348,54.0712348 51.3267942,53.9024232 50.0101565,53.9024232 L48.863258,53.9024232 L48.863258,58.1723362 Z" id="Fill-3" fill="#161616"></path>
                        <mask id="mask-2" fill="white">
                            <use xlink:href="#path-1"></use>
                        </mask>
                        <g id="Clip-6"></g>
                        <polygon id="Fill-5" fill="#161616" mask="url(#mask-2)" points="62.0990145 62.2288696 67.3298551 62.2288696 67.3298551 42.1068986 62.0990145 42.1068986"></polygon>
                        <path d="M70.6383304,52.1676522 C70.6383304,50.6729275 70.9142725,49.2811594 71.4656928,47.9909565 C72.0175768,46.7016812 72.7823304,45.5756522 73.7608812,44.6156522 C74.7394319,43.6547246 75.9090551,42.9029565 77.2702145,42.3603478 C78.6309101,41.8182029 80.1298087,41.5464348 81.7669101,41.5464348 C83.3854609,41.5464348 84.8797217,41.8182029 86.2501565,42.3603478 C87.6196638,42.9029565 88.7985623,43.6547246 89.7863884,44.6156522 C90.7737507,45.5756522 91.543142,46.7016812 92.0945623,47.9909565 C92.6459826,49.2811594 92.9219246,50.6729275 92.9219246,52.1676522 C92.9219246,53.5552464 92.695142,54.8449855 92.241113,56.0373333 C91.7880116,57.2292174 91.1340986,58.288 90.2803014,59.2127536 L94.6118957,63.5364638 L88.9627362,63.5364638 L87.0510841,61.6415072 C86.2677797,61.9972174 85.4362435,62.2773333 84.5555478,62.4818551 C83.6748522,62.6863768 82.7445333,62.7884058 81.7669101,62.7884058 C80.1298087,62.7884058 78.6309101,62.5175652 77.2702145,61.9744928 C75.9090551,61.4328116 74.7394319,60.6801159 73.7608812,59.7201159 C72.7823304,58.7591884 72.0175768,57.634087 71.4656928,56.3443478 C70.9142725,55.0546087 70.6383304,53.6623768 70.6383304,52.1676522 M76.1094029,52.1676522 C76.1094029,52.9685797 76.2601275,53.7064348 76.5625043,54.3826087 C76.8648812,55.0587826 77.2743884,55.6463768 77.7905623,56.144 C78.3062725,56.642087 78.9068522,57.0288696 79.5918377,57.3048116 C80.2763594,57.5807536 81.0021565,57.7189565 81.7669101,57.7189565 C82.229287,57.7189565 82.6912,57.6651594 83.1545043,57.5584928 L79.3785043,53.7801739 L85.033229,53.7954783 L86.4908522,55.2633043 C87.1313159,54.3737971 87.4508522,53.3414493 87.4508522,52.1676522 C87.4508522,51.3667246 87.2996638,50.6293333 86.9968232,49.9531594 C86.6944464,49.2765217 86.2807652,48.6893913 85.7567072,48.1913043 C85.2317217,47.6936812 84.6265043,47.3068986 83.9419826,47.0304928 C83.2565333,46.7545507 82.5316638,46.6168116 81.7669101,46.6168116 C81.0021565,46.6168116 80.2763594,46.7545507 79.5918377,47.0304928 C78.9068522,47.3068986 78.3062725,47.6936812 77.7905623,48.1913043 C77.2743884,48.6893913 76.8648812,49.2765217 76.5625043,49.9531594 C76.2601275,50.6293333 76.1094029,51.3667246 76.1094029,52.1676522" id="Fill-7" fill="#161616" mask="url(#mask-2)"></path>
                        <path d="M95.3235478,52.1676522 C95.3235478,50.6729275 95.5990261,49.2811594 96.1509101,47.9909565 C96.7023304,46.7016812 97.4675478,45.5756522 98.4460986,44.6156522 C99.4246493,43.6547246 100.594272,42.9029565 101.955432,42.3603478 C103.316128,41.8182029 104.814562,41.5464348 106.451664,41.5464348 C108.070678,41.5464348 109.564939,41.8182029 110.935374,42.3603478 C112.304881,42.9029565 113.48378,43.6547246 114.471142,44.6156522 C115.458968,45.5756522 116.228359,46.7016812 116.77978,47.9909565 C117.3312,49.2811594 117.607142,50.6729275 117.607142,52.1676522 C117.607142,53.6623768 117.3312,55.0546087 116.77978,56.3443478 C116.228359,57.634087 115.458968,58.7591884 114.471142,59.7201159 C113.48378,60.6801159 112.304881,61.4328116 110.935374,61.9744928 C109.564939,62.5175652 108.070678,62.7884058 106.451664,62.7884058 C104.814562,62.7884058 103.316128,62.5175652 101.955432,61.9744928 C100.594272,61.4328116 99.4246493,60.6801159 98.4460986,59.7201159 C97.4675478,58.7591884 96.7023304,57.634087 96.1509101,56.3443478 C95.5990261,55.0546087 95.3235478,53.6623768 95.3235478,52.1676522 M100.794157,52.1676522 C100.794157,52.9685797 100.945345,53.7064348 101.247722,54.3826087 C101.550099,55.0587826 101.959606,55.6463768 102.47578,56.144 C102.99149,56.642087 103.591606,57.0288696 104.277055,57.3048116 C104.961577,57.5807536 105.68691,57.7189565 106.451664,57.7189565 C107.216881,57.7189565 107.941751,57.5807536 108.626736,57.3048116 C109.311722,57.0288696 109.916939,56.642087 110.441925,56.144 C110.965983,55.6463768 111.379664,55.0587826 111.682041,54.3826087 C111.984881,53.7064348 112.13607,52.9685797 112.13607,52.1676522 C112.13607,51.3667246 111.984881,50.6293333 111.682041,49.9531594 C111.379664,49.2765217 110.965983,48.6893913 110.441925,48.1913043 C109.916939,47.6936812 109.311722,47.3068986 108.626736,47.0304928 C107.941751,46.7545507 107.216881,46.6168116 106.451664,46.6168116 C105.68691,46.6168116 104.961577,46.7545507 104.277055,47.0304928 C103.591606,47.3068986 102.99149,47.6936812 102.47578,48.1913043 C101.959606,48.6893913 101.550099,49.2765217 101.247722,49.9531594 C100.945345,50.6293333 100.794157,51.3667246 100.794157,52.1676522" id="Fill-8" fill="#161616" mask="url(#mask-2)"></path>
                        <polygon id="Fill-9" fill="#787E81" mask="url(#mask-2)" points="43.6324174 0.217228986 43.6324174 10.3315478 43.6324174 20.4458667 53.7467362 10.3315478 53.7467362 0.217228986"></polygon>
                        <polygon id="Fill-10" fill="#787E81" mask="url(#mask-2)" points="53.3321739 11.5775072 43.6324638 21.2776812 53.7467826 21.2776812 58.3877101 16.6362899"></polygon>
                        <polygon id="Fill-11" fill="#787E81" mask="url(#mask-2)" points="63.8606841 0.217228986 63.8606841 10.3315478 73.9754667 20.4458667 73.9754667 10.3315478 73.9754667 0.217228986"></polygon>
                        <polygon id="Fill-12" fill="#787E81" mask="url(#mask-2)" points="43.6322319 31.9814493 53.7465507 31.9814493 53.7465507 21.8671304 43.6322319 21.8671304"></polygon>
                        <polygon id="Fill-13" fill="#787E81" mask="url(#mask-2)" points="63.8608696 31.9814493 73.9751884 31.9814493 73.9751884 21.8671304 63.8608696 21.8671304"></polygon>
                        <polygon id="Fill-14" fill="#787E81" mask="url(#mask-2)" points="63.8606841 11.1635942 53.7463652 11.1635942 63.8606841 21.277913 73.9754667 21.277913"></polygon>
                    </g>
                </g>
            </g>
        </g>
    </g>
</svg>