<?xml version="1.0" encoding="UTF-8"?>
<svg width="118px" height="23px" viewBox="0 0 118 23" version="1.1" xmlns="http://www.w3.org/2000/svg" xmlns:xlink="http://www.w3.org/1999/xlink">
    <!-- Generator: Sketch 47.1 (45422) - http://www.bohemiancoding.com/sketch -->
    <title>Logo</title>
    <desc>Created with Sketch.</desc>
    <defs></defs>
    <g id="Home-Responsive--v1" stroke="none" stroke-width="1" fill="none" fill-rule="evenodd">
        <g id="960-Home" transform="translate(-139.000000, -922.000000)" fill="#161616">
            <g id="Anchor-Links" transform="translate(0.000000, 880.000000)">
                <g id="Logo" transform="translate(139.000000, 42.000000)">
                    <g id="Word" transform="translate(0.000000, 0.246261)">
                        <polygon id="Fill-1" points="12.7826087 1.10694493 12.7826087 8.87274203 5.23107246 8.87274203 5.23107246 1.10694493 0.000231884058 1.10694493 0.000231884058 21.2284522 5.23107246 21.2284522 5.23107246 12.9293217 12.7826087 12.9293217 12.7826087 21.2284522 18.013913 21.2284522 18.013913 1.10694493"></polygon>
                        <path d="M34.5594899,17.732429 L27.087258,17.732429 L25.8860986,21.228313 L20.3083594,21.228313 L27.9674899,1.1068058 L33.6787942,1.1068058 L41.3369971,21.228313 L35.7601855,21.228313 L34.5594899,17.732429 Z M33.1714319,13.7565449 L30.8229101,7.05741449 L28.4748522,13.7565449 L33.1714319,13.7565449 Z" id="Fill-2"></path>
                        <path d="M43.6324174,1.10694493 L51.425113,1.10694493 C53.2750841,1.10694493 54.6807652,1.55169855 55.641229,2.4412058 C56.6021565,3.33071304 57.0826203,4.61210435 57.0826203,6.28352464 C57.0826203,7.29824928 56.8994319,8.1385971 56.5353739,8.80595942 C56.1703884,9.47285797 55.615258,10.0381913 54.8676638,10.5005681 C55.615258,10.6429449 56.2506203,10.8604522 56.7756058,11.1544812 C57.3001275,11.4475826 57.7277217,11.8083942 58.0569971,12.2350609 C58.3858087,12.6621913 58.6209391,13.1426551 58.7637797,13.6764522 C58.9061565,14.2102493 58.977113,14.7792928 58.977113,15.3840464 C58.977113,16.326887 58.8124754,17.1635246 58.4832,17.8925681 C58.1539246,18.6225391 57.6915478,19.2361043 57.0956058,19.7341913 C56.4996638,20.2318145 55.775258,20.6060754 54.9209971,20.8551188 C54.0672,21.1041623 53.1062725,21.2284522 52.0386783,21.2284522 L43.6324174,21.2284522 L43.6324174,1.10694493 Z M48.863258,9.00584348 L49.8237217,9.00584348 C51.4603594,9.00584348 52.2793739,8.35656812 52.2793739,7.05755362 C52.2793739,5.7590029 51.4603594,5.10972754 49.8237217,5.10972754 L48.863258,5.10972754 L48.863258,9.00584348 Z M48.863258,17.1723362 L50.0101565,17.1723362 C51.3267942,17.1723362 52.2696348,17.0030609 52.8396058,16.6649739 C53.4086493,16.326887 53.6929391,15.7842783 53.6929391,15.0371478 C53.6929391,14.2900174 53.4086493,13.7478725 52.8396058,13.408858 C52.2696348,13.0712348 51.3267942,12.9024232 50.0101565,12.9024232 L48.863258,12.9024232 L48.863258,17.1723362 Z" id="Fill-3"></path>
                        <polygon id="Fill-5" points="62.0990145 21.2288696 67.3298551 21.2288696 67.3298551 1.10689855 62.0990145 1.10689855"></polygon>
                        <path d="M70.6383304,11.1676522 C70.6383304,9.67292754 70.9142725,8.28115942 71.4656928,6.99095652 C72.0175768,5.70168116 72.7823304,4.57565217 73.7608812,3.61565217 C74.7394319,2.65472464 75.9090551,1.90295652 77.2702145,1.36034783 C78.6309101,0.818202899 80.1298087,0.546434783 81.7669101,0.546434783 C83.3854609,0.546434783 84.8797217,0.818202899 86.2501565,1.36034783 C87.6196638,1.90295652 88.7985623,2.65472464 89.7863884,3.61565217 C90.7737507,4.57565217 91.543142,5.70168116 92.0945623,6.99095652 C92.6459826,8.28115942 92.9219246,9.67292754 92.9219246,11.1676522 C92.9219246,12.5552464 92.695142,13.8449855 92.241113,15.0373333 C91.7880116,16.2292174 91.1340986,17.288 90.2803014,18.2127536 L94.6118957,22.5364638 L88.9627362,22.5364638 L87.0510841,20.6415072 C86.2677797,20.9972174 85.4362435,21.2773333 84.5555478,21.4818551 C83.6748522,21.6863768 82.7445333,21.7884058 81.7669101,21.7884058 C80.1298087,21.7884058 78.6309101,21.5175652 77.2702145,20.9744928 C75.9090551,20.4328116 74.7394319,19.6801159 73.7608812,18.7201159 C72.7823304,17.7591884 72.0175768,16.634087 71.4656928,15.3443478 C70.9142725,14.0546087 70.6383304,12.6623768 70.6383304,11.1676522 M76.1094029,11.1676522 C76.1094029,11.9685797 76.2601275,12.7064348 76.5625043,13.3826087 C76.8648812,14.0587826 77.2743884,14.6463768 77.7905623,15.144 C78.3062725,15.642087 78.9068522,16.0288696 79.5918377,16.3048116 C80.2763594,16.5807536 81.0021565,16.7189565 81.7669101,16.7189565 C82.229287,16.7189565 82.6912,16.6651594 83.1545043,16.5584928 L79.3785043,12.7801739 L85.033229,12.7954783 L86.4908522,14.2633043 C87.1313159,13.3737971 87.4508522,12.3414493 87.4508522,11.1676522 C87.4508522,10.3667246 87.2996638,9.62933333 86.9968232,8.95315942 C86.6944464,8.27652174 86.2807652,7.6893913 85.7567072,7.19130435 C85.2317217,6.69368116 84.6265043,6.30689855 83.9419826,6.03049275 C83.2565333,5.75455072 82.5316638,5.61681159 81.7669101,5.61681159 C81.0021565,5.61681159 80.2763594,5.75455072 79.5918377,6.03049275 C78.9068522,6.30689855 78.3062725,6.69368116 77.7905623,7.19130435 C77.2743884,7.6893913 76.8648812,8.27652174 76.5625043,8.95315942 C76.2601275,9.62933333 76.1094029,10.3667246 76.1094029,11.1676522" id="Fill-7"></path>
                        <path d="M95.3235478,11.1676522 C95.3235478,9.67292754 95.5990261,8.28115942 96.1509101,6.99095652 C96.7023304,5.70168116 97.4675478,4.57565217 98.4460986,3.61565217 C99.4246493,2.65472464 100.594272,1.90295652 101.955432,1.36034783 C103.316128,0.818202899 104.814562,0.546434783 106.451664,0.546434783 C108.070678,0.546434783 109.564939,0.818202899 110.935374,1.36034783 C112.304881,1.90295652 113.48378,2.65472464 114.471142,3.61565217 C115.458968,4.57565217 116.228359,5.70168116 116.77978,6.99095652 C117.3312,8.28115942 117.607142,9.67292754 117.607142,11.1676522 C117.607142,12.6623768 117.3312,14.0546087 116.77978,15.3443478 C116.228359,16.634087 115.458968,17.7591884 114.471142,18.7201159 C113.48378,19.6801159 112.304881,20.4328116 110.935374,20.9744928 C109.564939,21.5175652 108.070678,21.7884058 106.451664,21.7884058 C104.814562,21.7884058 103.316128,21.5175652 101.955432,20.9744928 C100.594272,20.4328116 99.4246493,19.6801159 98.4460986,18.7201159 C97.4675478,17.7591884 96.7023304,16.634087 96.1509101,15.3443478 C95.5990261,14.0546087 95.3235478,12.6623768 95.3235478,11.1676522 M100.794157,11.1676522 C100.794157,11.9685797 100.945345,12.7064348 101.247722,13.3826087 C101.550099,14.0587826 101.959606,14.6463768 102.47578,15.144 C102.99149,15.642087 103.591606,16.0288696 104.277055,16.3048116 C104.961577,16.5807536 105.68691,16.7189565 106.451664,16.7189565 C107.216881,16.7189565 107.941751,16.5807536 108.626736,16.3048116 C109.311722,16.0288696 109.916939,15.642087 110.441925,15.144 C110.965983,14.6463768 111.379664,14.0587826 111.682041,13.3826087 C111.984881,12.7064348 112.13607,11.9685797 112.13607,11.1676522 C112.13607,10.3667246 111.984881,9.62933333 111.682041,8.95315942 C111.379664,8.27652174 110.965983,7.6893913 110.441925,7.19130435 C109.916939,6.69368116 109.311722,6.30689855 108.626736,6.03049275 C107.941751,5.75455072 107.216881,5.61681159 106.451664,5.61681159 C105.68691,5.61681159 104.961577,5.75455072 104.277055,6.03049275 C103.591606,6.30689855 102.99149,6.69368116 102.47578,7.19130435 C101.959606,7.6893913 101.550099,8.27652174 101.247722,8.95315942 C100.945345,9.62933333 100.794157,10.3667246 100.794157,11.1676522" id="Fill-8"></path>
                    </g>
                </g>
            </g>
        </g>
    </g>
</svg>