<?xml version="1.0" encoding="UTF-8"?>
<svg width="178px" height="123px" viewBox="0 0 178 123" version="1.1" xmlns="http://www.w3.org/2000/svg" xmlns:xlink="http://www.w3.org/1999/xlink">
    <!-- Generator: Sketch 47.1 (45422) - http://www.bohemiancoding.com/sketch -->
    <title>Logo</title>
    <desc>Created with Sketch.</desc>
    <defs></defs>
    <g id="Home-Responsive--v1" stroke="none" stroke-width="1" fill="none" fill-rule="evenodd">
        <g id="960-Home" transform="translate(-630.000000, -379.000000)" fill="#F6F8F9">
            <g id="Logo" transform="translate(630.000000, 379.000000)">
                <g id="Word" transform="translate(0.000000, 89.158879)">
                    <polygon id="Fill-1" points="19.3396548 0.89336049 19.3396548 12.642749 7.91443579 12.642749 7.91443579 0.89336049 0.00035083274 0.89336049 0.00035083274 31.3372224 7.91443579 31.3372224 7.91443579 18.7802169 19.3396548 18.7802169 19.3396548 31.3372224 27.2544414 31.3372224 27.2544414 0.89336049"></polygon>
                    <path d="M52.2873398,26.048068 L40.9821056,26.048068 L39.164792,31.3372224 L30.7258612,31.3372224 L42.3138667,0.894062156 L50.9548771,0.894062156 L62.5414791,31.3372224 L54.1039517,31.3372224 L52.2873398,26.048068 Z M50.187255,20.0326898 L46.634021,9.89713194 L43.0814887,20.0326898 L50.187255,20.0326898 Z" id="Fill-2"></path>
                    <path d="M66.0143724,0.893641157 L77.8044575,0.893641157 C80.6034011,0.893641157 82.7301492,1.56724002 84.1832984,2.91233275 C85.6371493,4.2588288 86.3640747,6.19682886 86.3640747,8.72633292 C86.3640747,10.2608753 86.0869169,11.5329948 85.5361095,12.5426915 C84.9838987,13.5516864 84.1440051,14.406315 83.0129204,15.1065771 C84.1440051,15.3212868 85.1052869,15.6510696 85.8995722,16.0959255 C86.6931558,16.5386764 87.3400914,17.0845721 87.8382739,17.7301044 C88.3357547,18.3763383 88.6914991,19.1032637 88.9076121,19.9115824 C89.1230234,20.7184977 89.2303782,21.5794412 89.2303782,22.4951147 C89.2303782,23.9208989 88.981287,25.1867034 88.4831045,26.2904232 C87.984922,27.394143 87.2853615,28.3231481 86.3837214,29.0767369 C85.4820812,29.8296239 84.3860797,30.3951663 83.0936119,30.7719607 C81.8018458,31.148755 80.3479949,31.337503 78.732761,31.337503 L66.0143724,31.337503 L66.0143724,0.893641157 Z M73.9284574,12.8444076 L75.3816066,12.8444076 C77.8577841,12.8444076 79.0969253,11.862076 79.0969253,9.89741261 C79.0969253,7.93274926 77.8577841,6.94971592 75.3816066,6.94971592 L73.9284574,6.94971592 L73.9284574,12.8444076 Z M73.9284574,25.2007367 L75.6636761,25.2007367 C77.6557044,25.2007367 79.0821904,24.9446288 79.9445372,24.4331147 C80.8054808,23.9208989 81.2356017,23.100652 81.2356017,21.9695672 C81.2356017,20.8398858 80.8054808,20.0189372 79.9445372,19.5067214 C79.0821904,18.9959089 77.6557044,18.7405027 75.6636761,18.7405027 L73.9284574,18.7405027 L73.9284574,25.2007367 Z" id="Fill-3"></path>
                    <polygon id="Fill-5" points="93.9537096 31.337082 101.867795 31.337082 101.867795 0.893921823 93.9537096 0.893921823"></polygon>
                    <path d="M106.873406,16.1151511 C106.873406,13.8536833 107.290897,11.7479851 108.125177,9.79665345 C108.960159,7.84532174 110.117205,6.14237962 111.59772,4.68923041 C113.078234,3.2360812 114.847834,2.09797979 116.907222,1.27703118 C118.965909,0.456784228 121.233692,0.0456082563 123.710571,0.0456082563 C126.159383,0.0456082563 128.420149,0.456784228 130.493571,1.27703118 C132.565589,2.09797979 134.349223,3.2360812 135.84377,4.68923041 C137.337616,6.14237962 138.501679,7.84532174 139.335959,9.79665345 C140.17024,11.7479851 140.587731,13.8536833 140.587731,16.1151511 C140.587731,18.2145342 140.244616,20.1658659 139.557686,21.9698479 C138.872158,23.7738298 137.88281,25.3757321 136.591044,26.7741514 L143.1446,33.3157787 L134.597612,33.3157787 L131.705347,30.4487735 C130.520234,30.9876526 129.262148,31.4114586 127.929685,31.7208931 C126.597223,32.0303275 125.189682,32.1846939 123.710571,32.1846939 C121.233692,32.1846939 118.965909,31.7742196 116.907222,30.953271 C114.847834,30.1337257 113.078234,28.9949227 111.59772,27.5417735 C110.117205,26.0879226 108.960159,24.3863838 108.125177,22.4350521 C107.290897,20.4830187 106.873406,18.3766189 106.873406,16.1151511 M115.150954,16.1151511 C115.150954,17.3276291 115.378995,18.4432772 115.836481,19.4663054 C116.293967,20.4893337 116.913537,21.3783439 117.694491,22.1319326 C118.474743,22.8848197 119.3834,23.4707103 120.41976,23.8874996 C121.455418,24.3056923 122.553524,24.5140869 123.710571,24.5140869 C124.410131,24.5140869 125.10899,24.4326937 125.809954,24.2713107 L120.096994,18.5555436 L128.652401,18.5786986 L130.857735,20.7987682 C131.826735,19.4536755 132.310183,17.8917681 132.310183,16.1151511 C132.310183,14.9040765 132.08144,13.7877267 131.623252,12.7646984 C131.165767,11.7416702 130.539881,10.8533617 129.746999,10.0997729 C128.952714,9.34618421 128.03704,8.7609952 127.001382,8.34350423 C125.96432,7.92601327 124.867617,7.71691696 123.710571,7.71691696 C122.553524,7.71691696 121.455418,7.92601327 120.41976,8.34350423 C119.3834,8.7609952 118.474743,9.34618421 117.694491,10.0997729 C116.913537,10.8533617 116.293967,11.7416702 115.836481,12.7646984 C115.378995,13.7877267 115.150954,14.9040765 115.150954,16.1151511" id="Fill-7"></path>
                    <path d="M144.221305,16.1151511 C144.221305,13.8536833 144.638095,11.7479851 145.473077,9.79665345 C146.307357,7.84532174 147.465105,6.14237962 148.945619,4.68923041 C150.426133,3.2360812 152.195733,2.09797979 154.255122,1.27703118 C156.313808,0.456784228 158.580889,0.0456082563 161.057769,0.0456082563 C163.507283,0.0456082563 165.768049,0.456784228 167.84147,1.27703118 C169.913489,2.09797979 171.697122,3.2360812 173.190968,4.68923041 C174.685515,6.14237962 175.849579,7.84532174 176.683859,9.79665345 C177.518139,11.7479851 177.93563,13.8536833 177.93563,16.1151511 C177.93563,18.3766189 177.518139,20.4830187 176.683859,22.4350521 C175.849579,24.3863838 174.685515,26.0879226 173.190968,27.5417735 C171.697122,28.9949227 169.913489,30.1337257 167.84147,30.953271 C165.768049,31.7742196 163.507283,32.1846939 161.057769,32.1846939 C158.580889,32.1846939 156.313808,31.7742196 154.255122,30.953271 C152.195733,30.1337257 150.426133,28.9949227 148.945619,27.5417735 C147.465105,26.0879226 146.307357,24.3863838 145.473077,22.4350521 C144.638095,20.4830187 144.221305,18.3766189 144.221305,16.1151511 M152.498151,16.1151511 C152.498151,17.3276291 152.726894,18.4432772 153.18438,19.4663054 C153.641866,20.4893337 154.261437,21.3783439 155.04239,22.1319326 C155.822642,22.8848197 156.730597,23.4707103 157.767659,23.8874996 C158.803317,24.3056923 159.900722,24.5140869 161.057769,24.5140869 C162.215517,24.5140869 163.31222,24.3056923 164.34858,23.8874996 C165.38494,23.4707103 166.300613,22.8848197 167.094898,22.1319326 C167.88778,21.3783439 168.513666,20.4893337 168.971152,19.4663054 C169.429339,18.4432772 169.658082,17.3276291 169.658082,16.1151511 C169.658082,14.9040765 169.429339,13.7877267 168.971152,12.7646984 C168.513666,11.7416702 167.88778,10.8533617 167.094898,10.0997729 C166.300613,9.34618421 165.38494,8.7609952 164.34858,8.34350423 C163.31222,7.92601327 162.215517,7.71691696 161.057769,7.71691696 C159.900722,7.71691696 158.803317,7.92601327 157.767659,8.34350423 C156.730597,8.7609952 155.822642,9.34618421 155.04239,10.0997729 C154.261437,10.8533617 153.641866,11.7416702 153.18438,12.7646984 C152.726894,13.7877267 152.498151,14.9040765 152.498151,16.1151511" id="Fill-8"></path>
                </g>
                <g id="H" transform="translate(57.196262, 0.000000)">
                    <polygon id="Fill-9" points="0.0792096128 0.96070494 0.0792096128 21.9252977 0.0792096128 42.8898905 21.0438024 21.9252977 21.0438024 0.96070494"></polygon>
                    <polygon id="Fill-10" points="20.1845127 24.5078772 0.079305741 44.6140454 21.0438985 44.6140454 30.6634446 34.9935381"></polygon>
                    <polygon id="Fill-11" points="42.0076262 0.96070494 42.0076262 21.9252977 62.9731802 42.8898905 62.9731802 21.9252977 62.9731802 0.96070494"></polygon>
                    <polygon id="Fill-12" points="0.0788251001 66.8013885 21.0434179 66.8013885 21.0434179 45.8367957 0.0788251001 45.8367957"></polygon>
                    <polygon id="Fill-13" points="42.0080107 66.8013885 62.9726035 66.8013885 62.9726035 45.8367957 42.0080107 45.8367957"></polygon>
                    <polygon id="Fill-14" points="42.0076262 23.6498371 21.0430334 23.6498371 42.0076262 44.6144299 62.9731802 44.6144299"></polygon>
                </g>
            </g>
        </g>
    </g>
</svg>